<mxfile host="Electron" agent="Mozilla/5.0 (Windows NT 10.0; Win64; x64) AppleWebKit/537.36 (KHTML, like Gecko) draw.io/27.0.9 Chrome/134.0.6998.205 Electron/35.4.0 Safari/537.36" version="27.0.9">
  <diagram name="第 1 页" id="5HyX7SRCrdXtjMvmTIK7">
    <mxGraphModel dx="3178" dy="1848" grid="1" gridSize="10" guides="1" tooltips="1" connect="1" arrows="1" fold="1" page="1" pageScale="1" pageWidth="1920" pageHeight="1200" background="#000000" math="0" shadow="0">
      <root>
        <mxCell id="0" />
        <mxCell id="1" parent="0" />
        <mxCell id="itl_u60emXafwgLW5-W6-6" value="" style="rounded=0;whiteSpace=wrap;html=1;" vertex="1" parent="1">
          <mxGeometry x="80" y="1220" width="1750" height="940" as="geometry" />
        </mxCell>
        <mxCell id="itl_u60emXafwgLW5-W6-3" value="" style="rounded=0;whiteSpace=wrap;html=1;" vertex="1" parent="1">
          <mxGeometry x="1870" y="930" width="1860" height="1230" as="geometry" />
        </mxCell>
        <mxCell id="itl_u60emXafwgLW5-W6-1" value="" style="rounded=0;whiteSpace=wrap;html=1;" vertex="1" parent="1">
          <mxGeometry x="550" y="190" width="2580" height="640" as="geometry" />
        </mxCell>
        <mxCell id="Ol25Mjr4HjbO76KpwRX4-79" value="" style="rounded=0;whiteSpace=wrap;html=1;" parent="1" vertex="1">
          <mxGeometry x="1240" y="1430" width="470" height="560" as="geometry" />
        </mxCell>
        <mxCell id="Ol25Mjr4HjbO76KpwRX4-76" value="" style="rounded=0;whiteSpace=wrap;html=1;" parent="1" vertex="1">
          <mxGeometry x="1610" y="250" width="1300" height="490" as="geometry" />
        </mxCell>
        <mxCell id="HNAe3Z1kj6rOSVass_iy-4" value="GitHub仓库&lt;div&gt;（argocd-manifests-secrets）&lt;/div&gt;" style="rounded=0;whiteSpace=wrap;html=1;" parent="1" vertex="1">
          <mxGeometry x="430" y="1630" width="200" height="80" as="geometry" />
        </mxCell>
        <mxCell id="HNAe3Z1kj6rOSVass_iy-5" value="GitOps-SA" style="shape=umlActor;verticalLabelPosition=bottom;verticalAlign=top;html=1;outlineConnect=0;" parent="1" vertex="1">
          <mxGeometry x="230" y="1640" width="30" height="60" as="geometry" />
        </mxCell>
        <mxCell id="HNAe3Z1kj6rOSVass_iy-7" value="" style="endArrow=classic;html=1;rounded=0;" parent="1" edge="1">
          <mxGeometry relative="1" as="geometry">
            <mxPoint x="290" y="1669.6599999999999" as="sourcePoint" />
            <mxPoint x="390" y="1669.6599999999999" as="targetPoint" />
          </mxGeometry>
        </mxCell>
        <mxCell id="HNAe3Z1kj6rOSVass_iy-8" value="提交代码" style="edgeLabel;resizable=0;html=1;;align=center;verticalAlign=middle;" parent="HNAe3Z1kj6rOSVass_iy-7" connectable="0" vertex="1">
          <mxGeometry relative="1" as="geometry" />
        </mxCell>
        <mxCell id="HNAe3Z1kj6rOSVass_iy-10" value="" style="endArrow=classic;html=1;" parent="1" edge="1">
          <mxGeometry relative="1" as="geometry">
            <mxPoint x="650" y="1670" as="sourcePoint" />
            <mxPoint x="830" y="1670" as="targetPoint" />
          </mxGeometry>
        </mxCell>
        <mxCell id="HNAe3Z1kj6rOSVass_iy-11" value="同步argocd application" style="edgeLabel;resizable=0;html=1;;align=center;verticalAlign=middle;" parent="HNAe3Z1kj6rOSVass_iy-10" connectable="0" vertex="1">
          <mxGeometry relative="1" as="geometry" />
        </mxCell>
        <mxCell id="HNAe3Z1kj6rOSVass_iy-12" value="ArgoCD平台" style="rounded=0;whiteSpace=wrap;html=1;" parent="1" vertex="1">
          <mxGeometry x="870" y="1630" width="200" height="80" as="geometry" />
        </mxCell>
        <mxCell id="HNAe3Z1kj6rOSVass_iy-16" value="" style="endArrow=classic;html=1;rounded=0;" parent="1" edge="1">
          <mxGeometry width="50" height="50" relative="1" as="geometry">
            <mxPoint x="1090" y="1669.41" as="sourcePoint" />
            <mxPoint x="1210" y="1669.41" as="targetPoint" />
          </mxGeometry>
        </mxCell>
        <mxCell id="HNAe3Z1kj6rOSVass_iy-17" value="更新资源" style="edgeLabel;html=1;align=center;verticalAlign=middle;resizable=0;points=[];" parent="HNAe3Z1kj6rOSVass_iy-16" vertex="1" connectable="0">
          <mxGeometry x="-0.1595" relative="1" as="geometry">
            <mxPoint as="offset" />
          </mxGeometry>
        </mxCell>
        <mxCell id="HNAe3Z1kj6rOSVass_iy-18" value="Secret" style="rounded=0;whiteSpace=wrap;html=1;" parent="1" vertex="1">
          <mxGeometry x="1310" y="1550" width="200" height="80" as="geometry" />
        </mxCell>
        <mxCell id="HNAe3Z1kj6rOSVass_iy-20" value="" style="endArrow=none;html=1;rounded=0;" parent="1" edge="1">
          <mxGeometry width="50" height="50" relative="1" as="geometry">
            <mxPoint x="1330" y="1660" as="sourcePoint" />
            <mxPoint x="1330" y="1630" as="targetPoint" />
          </mxGeometry>
        </mxCell>
        <mxCell id="HNAe3Z1kj6rOSVass_iy-23" value="" style="endArrow=none;html=1;rounded=0;" parent="1" edge="1">
          <mxGeometry width="50" height="50" relative="1" as="geometry">
            <mxPoint x="1530" y="1660" as="sourcePoint" />
            <mxPoint x="1530" y="1620" as="targetPoint" />
          </mxGeometry>
        </mxCell>
        <mxCell id="HNAe3Z1kj6rOSVass_iy-24" value="" style="endArrow=none;html=1;rounded=0;" parent="1" edge="1">
          <mxGeometry width="50" height="50" relative="1" as="geometry">
            <mxPoint x="1330" y="1660" as="sourcePoint" />
            <mxPoint x="1530" y="1660" as="targetPoint" />
            <Array as="points">
              <mxPoint x="1360" y="1660" />
            </Array>
          </mxGeometry>
        </mxCell>
        <mxCell id="HNAe3Z1kj6rOSVass_iy-25" value="" style="endArrow=none;html=1;rounded=0;" parent="1" edge="1">
          <mxGeometry width="50" height="50" relative="1" as="geometry">
            <mxPoint x="1510" y="1620" as="sourcePoint" />
            <mxPoint x="1530" y="1620.4" as="targetPoint" />
          </mxGeometry>
        </mxCell>
        <mxCell id="HNAe3Z1kj6rOSVass_iy-26" value="" style="endArrow=none;html=1;rounded=0;" parent="1" edge="1">
          <mxGeometry width="50" height="50" relative="1" as="geometry">
            <mxPoint x="1340" y="1690" as="sourcePoint" />
            <mxPoint x="1340" y="1660" as="targetPoint" />
          </mxGeometry>
        </mxCell>
        <mxCell id="HNAe3Z1kj6rOSVass_iy-27" value="" style="endArrow=none;html=1;rounded=0;" parent="1" edge="1">
          <mxGeometry width="50" height="50" relative="1" as="geometry">
            <mxPoint x="1340" y="1690" as="sourcePoint" />
            <mxPoint x="1550" y="1690" as="targetPoint" />
            <Array as="points">
              <mxPoint x="1370" y="1690" />
            </Array>
          </mxGeometry>
        </mxCell>
        <mxCell id="HNAe3Z1kj6rOSVass_iy-28" value="" style="endArrow=none;html=1;rounded=0;" parent="1" edge="1">
          <mxGeometry width="50" height="50" relative="1" as="geometry">
            <mxPoint x="1550" y="1690" as="sourcePoint" />
            <mxPoint x="1550" y="1650" as="targetPoint" />
          </mxGeometry>
        </mxCell>
        <mxCell id="HNAe3Z1kj6rOSVass_iy-29" value="" style="endArrow=none;html=1;rounded=0;" parent="1" edge="1">
          <mxGeometry width="50" height="50" relative="1" as="geometry">
            <mxPoint x="1530" y="1650" as="sourcePoint" />
            <mxPoint x="1550" y="1650.4" as="targetPoint" />
          </mxGeometry>
        </mxCell>
        <mxCell id="HNAe3Z1kj6rOSVass_iy-30" value="ConfigMap" style="rounded=0;whiteSpace=wrap;html=1;" parent="1" vertex="1">
          <mxGeometry x="1310" y="1710" width="200" height="80" as="geometry" />
        </mxCell>
        <mxCell id="HNAe3Z1kj6rOSVass_iy-31" value="" style="endArrow=none;html=1;rounded=0;" parent="1" edge="1">
          <mxGeometry width="50" height="50" relative="1" as="geometry">
            <mxPoint x="1330" y="1820" as="sourcePoint" />
            <mxPoint x="1330" y="1790" as="targetPoint" />
          </mxGeometry>
        </mxCell>
        <mxCell id="HNAe3Z1kj6rOSVass_iy-32" value="" style="endArrow=none;html=1;rounded=0;" parent="1" edge="1">
          <mxGeometry width="50" height="50" relative="1" as="geometry">
            <mxPoint x="1530" y="1820" as="sourcePoint" />
            <mxPoint x="1530" y="1780" as="targetPoint" />
          </mxGeometry>
        </mxCell>
        <mxCell id="HNAe3Z1kj6rOSVass_iy-33" value="" style="endArrow=none;html=1;rounded=0;" parent="1" edge="1">
          <mxGeometry width="50" height="50" relative="1" as="geometry">
            <mxPoint x="1330" y="1820" as="sourcePoint" />
            <mxPoint x="1530" y="1820" as="targetPoint" />
            <Array as="points">
              <mxPoint x="1360" y="1820" />
            </Array>
          </mxGeometry>
        </mxCell>
        <mxCell id="HNAe3Z1kj6rOSVass_iy-34" value="" style="endArrow=none;html=1;rounded=0;" parent="1" edge="1">
          <mxGeometry width="50" height="50" relative="1" as="geometry">
            <mxPoint x="1510" y="1780" as="sourcePoint" />
            <mxPoint x="1530" y="1780.4" as="targetPoint" />
          </mxGeometry>
        </mxCell>
        <mxCell id="HNAe3Z1kj6rOSVass_iy-35" value="" style="endArrow=none;html=1;rounded=0;" parent="1" edge="1">
          <mxGeometry width="50" height="50" relative="1" as="geometry">
            <mxPoint x="1340" y="1850" as="sourcePoint" />
            <mxPoint x="1340" y="1820" as="targetPoint" />
          </mxGeometry>
        </mxCell>
        <mxCell id="HNAe3Z1kj6rOSVass_iy-36" value="" style="endArrow=none;html=1;rounded=0;" parent="1" edge="1">
          <mxGeometry width="50" height="50" relative="1" as="geometry">
            <mxPoint x="1340" y="1850" as="sourcePoint" />
            <mxPoint x="1550" y="1850" as="targetPoint" />
            <Array as="points">
              <mxPoint x="1370" y="1850" />
            </Array>
          </mxGeometry>
        </mxCell>
        <mxCell id="HNAe3Z1kj6rOSVass_iy-37" value="" style="endArrow=none;html=1;rounded=0;" parent="1" edge="1">
          <mxGeometry width="50" height="50" relative="1" as="geometry">
            <mxPoint x="1550" y="1850" as="sourcePoint" />
            <mxPoint x="1550" y="1810" as="targetPoint" />
          </mxGeometry>
        </mxCell>
        <mxCell id="HNAe3Z1kj6rOSVass_iy-38" value="" style="endArrow=none;html=1;rounded=0;" parent="1" edge="1">
          <mxGeometry width="50" height="50" relative="1" as="geometry">
            <mxPoint x="1530" y="1810" as="sourcePoint" />
            <mxPoint x="1550" y="1810.4" as="targetPoint" />
          </mxGeometry>
        </mxCell>
        <mxCell id="HNAe3Z1kj6rOSVass_iy-39" value="GitHub仓库&lt;div&gt;（simple-java-maven-app）&lt;/div&gt;" style="rounded=0;whiteSpace=wrap;html=1;labelBackgroundColor=default;fontColor=default;" parent="1" vertex="1">
          <mxGeometry x="930" y="410" width="200" height="80" as="geometry" />
        </mxCell>
        <mxCell id="HNAe3Z1kj6rOSVass_iy-40" value="Developer" style="shape=umlActor;verticalLabelPosition=bottom;verticalAlign=top;html=1;outlineConnect=0;labelBackgroundColor=default;fontColor=default;" parent="1" vertex="1">
          <mxGeometry x="730" y="420" width="30" height="60" as="geometry" />
        </mxCell>
        <mxCell id="HNAe3Z1kj6rOSVass_iy-41" value="" style="endArrow=classic;html=1;rounded=0;labelBackgroundColor=default;fontColor=default;" parent="1" edge="1">
          <mxGeometry relative="1" as="geometry">
            <mxPoint x="790" y="449.65999999999997" as="sourcePoint" />
            <mxPoint x="890" y="449.65999999999997" as="targetPoint" />
          </mxGeometry>
        </mxCell>
        <mxCell id="HNAe3Z1kj6rOSVass_iy-42" value="提交代码" style="edgeLabel;resizable=0;html=1;;align=center;verticalAlign=middle;labelBackgroundColor=default;fontColor=default;" parent="HNAe3Z1kj6rOSVass_iy-41" connectable="0" vertex="1">
          <mxGeometry relative="1" as="geometry" />
        </mxCell>
        <mxCell id="HNAe3Z1kj6rOSVass_iy-44" value="" style="endArrow=classic;html=1;labelBackgroundColor=default;fontColor=default;" parent="1" edge="1">
          <mxGeometry relative="1" as="geometry">
            <mxPoint x="1150" y="450" as="sourcePoint" />
            <mxPoint x="1330" y="450" as="targetPoint" />
          </mxGeometry>
        </mxCell>
        <mxCell id="HNAe3Z1kj6rOSVass_iy-45" value="构建jenkins job" style="edgeLabel;resizable=0;html=1;;align=center;verticalAlign=middle;labelBackgroundColor=default;fontColor=default;" parent="HNAe3Z1kj6rOSVass_iy-44" connectable="0" vertex="1">
          <mxGeometry relative="1" as="geometry" />
        </mxCell>
        <mxCell id="HNAe3Z1kj6rOSVass_iy-46" value="Jenkins Controller" style="rounded=0;whiteSpace=wrap;html=1;labelBackgroundColor=default;fontColor=default;" parent="1" vertex="1">
          <mxGeometry x="1370" y="410" width="200" height="80" as="geometry" />
        </mxCell>
        <mxCell id="Ol25Mjr4HjbO76KpwRX4-1" value="Jenkins Agent (maven)" style="rounded=0;whiteSpace=wrap;html=1;labelBackgroundColor=default;fontColor=default;" parent="1" vertex="1">
          <mxGeometry x="1700" y="300" width="200" height="80" as="geometry" />
        </mxCell>
        <mxCell id="Ol25Mjr4HjbO76KpwRX4-2" value="Jenkins Agent (nodejs)" style="rounded=0;whiteSpace=wrap;html=1;labelBackgroundColor=default;fontColor=default;" parent="1" vertex="1">
          <mxGeometry x="1700" y="420" width="200" height="80" as="geometry" />
        </mxCell>
        <mxCell id="Ol25Mjr4HjbO76KpwRX4-3" value="Jenkins Agent (go)" style="rounded=0;whiteSpace=wrap;html=1;labelBackgroundColor=default;fontColor=default;" parent="1" vertex="1">
          <mxGeometry x="1700" y="540" width="200" height="80" as="geometry" />
        </mxCell>
        <mxCell id="Ol25Mjr4HjbO76KpwRX4-7" value="" style="endArrow=classic;html=1;rounded=0;" parent="1" edge="1">
          <mxGeometry width="50" height="50" relative="1" as="geometry">
            <mxPoint x="1600" y="420" as="sourcePoint" />
            <mxPoint x="1650" y="370" as="targetPoint" />
          </mxGeometry>
        </mxCell>
        <mxCell id="Ol25Mjr4HjbO76KpwRX4-8" value="" style="endArrow=classic;html=1;rounded=0;" parent="1" edge="1">
          <mxGeometry width="50" height="50" relative="1" as="geometry">
            <mxPoint x="1600" y="500" as="sourcePoint" />
            <mxPoint x="1660" y="540" as="targetPoint" />
          </mxGeometry>
        </mxCell>
        <mxCell id="Ol25Mjr4HjbO76KpwRX4-9" value="" style="endArrow=classic;html=1;rounded=0;" parent="1" edge="1">
          <mxGeometry width="50" height="50" relative="1" as="geometry">
            <mxPoint x="1600" y="460" as="sourcePoint" />
            <mxPoint x="1660" y="460" as="targetPoint" />
          </mxGeometry>
        </mxCell>
        <mxCell id="Ol25Mjr4HjbO76KpwRX4-11" value="" style="endArrow=classic;html=1;rounded=0;" parent="1" edge="1">
          <mxGeometry width="50" height="50" relative="1" as="geometry">
            <mxPoint x="1930" y="459" as="sourcePoint" />
            <mxPoint x="2040" y="459" as="targetPoint" />
          </mxGeometry>
        </mxCell>
        <mxCell id="Ol25Mjr4HjbO76KpwRX4-12" value="Jenkins Agent (docker)" style="rounded=0;whiteSpace=wrap;html=1;labelBackgroundColor=default;fontColor=default;" parent="1" vertex="1">
          <mxGeometry x="2100" y="420" width="200" height="80" as="geometry" />
        </mxCell>
        <mxCell id="Ol25Mjr4HjbO76KpwRX4-13" value="Jenkins Agent (sync-argocd-app)" style="rounded=0;whiteSpace=wrap;html=1;labelBackgroundColor=default;fontColor=default;" parent="1" vertex="1">
          <mxGeometry x="2480" y="420" width="200" height="80" as="geometry" />
        </mxCell>
        <mxCell id="Ol25Mjr4HjbO76KpwRX4-14" value="" style="endArrow=classic;html=1;rounded=0;" parent="1" edge="1">
          <mxGeometry width="50" height="50" relative="1" as="geometry">
            <mxPoint x="2330" y="459" as="sourcePoint" />
            <mxPoint x="2440" y="459" as="targetPoint" />
          </mxGeometry>
        </mxCell>
        <mxCell id="Ol25Mjr4HjbO76KpwRX4-21" value="" style="endArrow=classic;html=1;rounded=0;entryX=0.5;entryY=0;entryDx=0;entryDy=0;" parent="1" edge="1" target="Ol25Mjr4HjbO76KpwRX4-27" source="Ol25Mjr4HjbO76KpwRX4-12">
          <mxGeometry relative="1" as="geometry">
            <mxPoint x="2189.58" y="750" as="sourcePoint" />
            <mxPoint x="2190" y="1050" as="targetPoint" />
          </mxGeometry>
        </mxCell>
        <mxCell id="Ol25Mjr4HjbO76KpwRX4-22" value="推送Docker镜像" style="edgeLabel;resizable=0;html=1;;align=center;verticalAlign=middle;rotation=90;" parent="Ol25Mjr4HjbO76KpwRX4-21" connectable="0" vertex="1">
          <mxGeometry relative="1" as="geometry">
            <mxPoint x="15" y="-151" as="offset" />
          </mxGeometry>
        </mxCell>
        <mxCell id="Ol25Mjr4HjbO76KpwRX4-25" value="" style="endArrow=classic;html=1;rounded=0;" parent="1" edge="1" source="Ol25Mjr4HjbO76KpwRX4-13">
          <mxGeometry relative="1" as="geometry">
            <mxPoint x="2590" y="780" as="sourcePoint" />
            <mxPoint x="2591" y="1080" as="targetPoint" />
          </mxGeometry>
        </mxCell>
        <mxCell id="Ol25Mjr4HjbO76KpwRX4-26" value="webhook触发同步" style="edgeLabel;resizable=0;html=1;;align=center;verticalAlign=middle;rotation=90;" parent="Ol25Mjr4HjbO76KpwRX4-25" connectable="0" vertex="1">
          <mxGeometry relative="1" as="geometry">
            <mxPoint x="14" y="-150" as="offset" />
          </mxGeometry>
        </mxCell>
        <mxCell id="Ol25Mjr4HjbO76KpwRX4-27" value="Harbor" style="rounded=0;whiteSpace=wrap;html=1;labelBackgroundColor=default;fontColor=default;" parent="1" vertex="1">
          <mxGeometry x="2090" y="1080" width="200" height="80" as="geometry" />
        </mxCell>
        <mxCell id="Ol25Mjr4HjbO76KpwRX4-31" value="deployment" style="rounded=0;whiteSpace=wrap;html=1;labelBackgroundColor=default;fontColor=default;" parent="1" vertex="1">
          <mxGeometry x="2090" y="1630" width="200" height="80" as="geometry" />
        </mxCell>
        <mxCell id="Ol25Mjr4HjbO76KpwRX4-32" value="service" style="rounded=0;whiteSpace=wrap;html=1;labelBackgroundColor=default;fontColor=default;" parent="1" vertex="1">
          <mxGeometry x="2480" y="1630" width="200" height="80" as="geometry" />
        </mxCell>
        <mxCell id="Ol25Mjr4HjbO76KpwRX4-33" value="ingress" style="rounded=0;whiteSpace=wrap;html=1;labelBackgroundColor=default;fontColor=default;" parent="1" vertex="1">
          <mxGeometry x="2840" y="1630" width="200" height="80" as="geometry" />
        </mxCell>
        <mxCell id="Ol25Mjr4HjbO76KpwRX4-34" value="ArgoCD" style="rounded=0;whiteSpace=wrap;html=1;labelBackgroundColor=default;fontColor=default;" parent="1" vertex="1">
          <mxGeometry x="2500" y="1080" width="200" height="80" as="geometry" />
        </mxCell>
        <mxCell id="Ol25Mjr4HjbO76KpwRX4-35" value="挂载" style="endArrow=classic;html=1;rounded=0;" parent="1" edge="1">
          <mxGeometry relative="1" as="geometry">
            <mxPoint x="2050" y="1680" as="sourcePoint" />
            <mxPoint x="1740" y="1680" as="targetPoint" />
          </mxGeometry>
        </mxCell>
        <mxCell id="Ol25Mjr4HjbO76KpwRX4-38" value="" style="endArrow=classic;html=1;rounded=0;" parent="1" edge="1">
          <mxGeometry width="50" height="50" relative="1" as="geometry">
            <mxPoint x="2199.66" y="1720" as="sourcePoint" />
            <mxPoint x="2200" y="1960" as="targetPoint" />
          </mxGeometry>
        </mxCell>
        <mxCell id="Ol25Mjr4HjbO76KpwRX4-39" value="" style="endArrow=classic;html=1;rounded=0;" parent="1" edge="1">
          <mxGeometry width="50" height="50" relative="1" as="geometry">
            <mxPoint x="2180" y="1720" as="sourcePoint" />
            <mxPoint x="2070" y="1960" as="targetPoint" />
          </mxGeometry>
        </mxCell>
        <mxCell id="Ol25Mjr4HjbO76KpwRX4-40" value="" style="endArrow=classic;html=1;rounded=0;" parent="1" edge="1">
          <mxGeometry width="50" height="50" relative="1" as="geometry">
            <mxPoint x="2220" y="1720" as="sourcePoint" />
            <mxPoint x="2350" y="1960" as="targetPoint" />
          </mxGeometry>
        </mxCell>
        <mxCell id="Ol25Mjr4HjbO76KpwRX4-41" value="simple-java-maven-app-c99465544-zdbxm" style="rounded=0;whiteSpace=wrap;html=1;labelBackgroundColor=default;fontColor=default;" parent="1" vertex="1">
          <mxGeometry x="1960" y="1980" width="140" height="70" as="geometry" />
        </mxCell>
        <mxCell id="Ol25Mjr4HjbO76KpwRX4-42" value="simple-java-maven-app-c99465544-nnhtp" style="rounded=0;whiteSpace=wrap;html=1;labelBackgroundColor=default;fontColor=default;" parent="1" vertex="1">
          <mxGeometry x="2140" y="1980" width="140" height="70" as="geometry" />
        </mxCell>
        <mxCell id="Ol25Mjr4HjbO76KpwRX4-43" value="simple-java-maven-app-c99465544-p5w7k" style="rounded=0;whiteSpace=wrap;html=1;labelBackgroundColor=default;fontColor=default;" parent="1" vertex="1">
          <mxGeometry x="2330" y="1980" width="140" height="70" as="geometry" />
        </mxCell>
        <mxCell id="Ol25Mjr4HjbO76KpwRX4-44" value="ArgoCD-CMP-Jsonnet" style="rounded=0;whiteSpace=wrap;html=1;labelBackgroundColor=default;fontColor=default;" parent="1" vertex="1">
          <mxGeometry x="2500" y="1340" width="200" height="80" as="geometry" />
        </mxCell>
        <mxCell id="Ol25Mjr4HjbO76KpwRX4-45" value="" style="endArrow=classic;html=1;rounded=0;" parent="1" edge="1">
          <mxGeometry width="50" height="50" relative="1" as="geometry">
            <mxPoint x="2550" y="1440" as="sourcePoint" />
            <mxPoint x="2240" y="1610" as="targetPoint" />
          </mxGeometry>
        </mxCell>
        <mxCell id="Ol25Mjr4HjbO76KpwRX4-46" value="" style="endArrow=classic;html=1;rounded=0;" parent="1" edge="1">
          <mxGeometry width="50" height="50" relative="1" as="geometry">
            <mxPoint x="2589" y="1440" as="sourcePoint" />
            <mxPoint x="2589" y="1620" as="targetPoint" />
          </mxGeometry>
        </mxCell>
        <mxCell id="Ol25Mjr4HjbO76KpwRX4-47" value="" style="endArrow=classic;html=1;rounded=0;" parent="1" edge="1">
          <mxGeometry width="50" height="50" relative="1" as="geometry">
            <mxPoint x="2630" y="1440" as="sourcePoint" />
            <mxPoint x="2960" y="1610" as="targetPoint" />
          </mxGeometry>
        </mxCell>
        <mxCell id="Ol25Mjr4HjbO76KpwRX4-48" value="" style="endArrow=classic;html=1;rounded=0;" parent="1" edge="1">
          <mxGeometry width="50" height="50" relative="1" as="geometry">
            <mxPoint x="2589" y="1190" as="sourcePoint" />
            <mxPoint x="2589" y="1320" as="targetPoint" />
          </mxGeometry>
        </mxCell>
        <mxCell id="Ol25Mjr4HjbO76KpwRX4-49" value="Jenkinsfile" style="shape=document;whiteSpace=wrap;html=1;boundedLbl=1;" parent="1" vertex="1">
          <mxGeometry x="955" y="510" width="80" height="40" as="geometry" />
        </mxCell>
        <mxCell id="Ol25Mjr4HjbO76KpwRX4-51" value="Dockerfile" style="shape=document;whiteSpace=wrap;html=1;boundedLbl=1;" parent="1" vertex="1">
          <mxGeometry x="1025" y="530" width="80" height="40" as="geometry" />
        </mxCell>
        <mxCell id="Ol25Mjr4HjbO76KpwRX4-55" value="" style="endArrow=classic;html=1;rounded=0;entryX=0.5;entryY=0;entryDx=0;entryDy=0;" parent="1" edge="1">
          <mxGeometry relative="1" as="geometry">
            <mxPoint x="2190" y="1601.5" as="sourcePoint" />
            <mxPoint x="2190" y="1170" as="targetPoint" />
          </mxGeometry>
        </mxCell>
        <mxCell id="Ol25Mjr4HjbO76KpwRX4-56" value="拉取Docker镜像" style="edgeLabel;resizable=0;html=1;;align=center;verticalAlign=middle;rotation=90;" parent="Ol25Mjr4HjbO76KpwRX4-55" connectable="0" vertex="1">
          <mxGeometry relative="1" as="geometry">
            <mxPoint x="-1" as="offset" />
          </mxGeometry>
        </mxCell>
        <mxCell id="Ol25Mjr4HjbO76KpwRX4-57" value="GitHub仓库&lt;div&gt;（argocd-manifests）&lt;/div&gt;" style="rounded=0;whiteSpace=wrap;html=1;" parent="1" vertex="1">
          <mxGeometry x="3040" y="1075" width="200" height="80" as="geometry" />
        </mxCell>
        <mxCell id="Ol25Mjr4HjbO76KpwRX4-58" value="GitOps-SA" style="shape=umlActor;verticalLabelPosition=bottom;verticalAlign=top;html=1;outlineConnect=0;" parent="1" vertex="1">
          <mxGeometry x="3520" y="990" width="30" height="60" as="geometry" />
        </mxCell>
        <mxCell id="Ol25Mjr4HjbO76KpwRX4-59" value="" style="endArrow=classic;html=1;rounded=0;" parent="1" edge="1">
          <mxGeometry relative="1" as="geometry">
            <mxPoint x="3490" y="1035" as="sourcePoint" />
            <mxPoint x="3290" y="1105" as="targetPoint" />
          </mxGeometry>
        </mxCell>
        <mxCell id="Ol25Mjr4HjbO76KpwRX4-60" value="提交代码" style="edgeLabel;resizable=0;html=1;;align=center;verticalAlign=middle;" parent="Ol25Mjr4HjbO76KpwRX4-59" connectable="0" vertex="1">
          <mxGeometry relative="1" as="geometry" />
        </mxCell>
        <mxCell id="Ol25Mjr4HjbO76KpwRX4-62" value="" style="endArrow=classic;html=1;" parent="1" edge="1">
          <mxGeometry relative="1" as="geometry">
            <mxPoint x="2980" y="1115" as="sourcePoint" />
            <mxPoint x="2730" y="1115" as="targetPoint" />
          </mxGeometry>
        </mxCell>
        <mxCell id="Ol25Mjr4HjbO76KpwRX4-63" value="同步argocd application" style="edgeLabel;resizable=0;html=1;;align=center;verticalAlign=middle;" parent="Ol25Mjr4HjbO76KpwRX4-62" connectable="0" vertex="1">
          <mxGeometry relative="1" as="geometry" />
        </mxCell>
        <mxCell id="Ol25Mjr4HjbO76KpwRX4-64" value="Developer" style="shape=umlActor;verticalLabelPosition=bottom;verticalAlign=top;html=1;outlineConnect=0;" parent="1" vertex="1">
          <mxGeometry x="3520" y="1145" width="30" height="60" as="geometry" />
        </mxCell>
        <mxCell id="Ol25Mjr4HjbO76KpwRX4-65" value="" style="endArrow=classic;html=1;rounded=0;" parent="1" edge="1">
          <mxGeometry relative="1" as="geometry">
            <mxPoint x="3490" y="1175" as="sourcePoint" />
            <mxPoint x="3290" y="1125" as="targetPoint" />
          </mxGeometry>
        </mxCell>
        <mxCell id="Ol25Mjr4HjbO76KpwRX4-66" value="提交代码" style="edgeLabel;resizable=0;html=1;;align=center;verticalAlign=middle;" parent="Ol25Mjr4HjbO76KpwRX4-65" connectable="0" vertex="1">
          <mxGeometry relative="1" as="geometry" />
        </mxCell>
        <mxCell id="Ol25Mjr4HjbO76KpwRX4-68" value="image" style="shape=document;whiteSpace=wrap;html=1;boundedLbl=1;" parent="1" vertex="1">
          <mxGeometry x="3060" y="1170" width="80" height="40" as="geometry" />
        </mxCell>
        <mxCell id="Ol25Mjr4HjbO76KpwRX4-69" value="tag" style="shape=document;whiteSpace=wrap;html=1;boundedLbl=1;" parent="1" vertex="1">
          <mxGeometry x="3130" y="1190" width="80" height="40" as="geometry" />
        </mxCell>
        <mxCell id="Ol25Mjr4HjbO76KpwRX4-72" value="" style="endArrow=classic;html=1;rounded=0;" parent="1" edge="1">
          <mxGeometry relative="1" as="geometry">
            <mxPoint x="2540" y="1330" as="sourcePoint" />
            <mxPoint x="2300" y="1145" as="targetPoint" />
          </mxGeometry>
        </mxCell>
        <mxCell id="Ol25Mjr4HjbO76KpwRX4-73" value="查询image的tag" style="edgeLabel;resizable=0;html=1;;align=center;verticalAlign=middle;rotation=35;" parent="Ol25Mjr4HjbO76KpwRX4-72" connectable="0" vertex="1">
          <mxGeometry relative="1" as="geometry" />
        </mxCell>
        <mxCell id="Ol25Mjr4HjbO76KpwRX4-74" value="" style="endArrow=classic;html=1;rounded=0;" parent="1" edge="1">
          <mxGeometry relative="1" as="geometry">
            <mxPoint x="2260" y="1170" as="sourcePoint" />
            <mxPoint x="2490" y="1360" as="targetPoint" />
          </mxGeometry>
        </mxCell>
        <mxCell id="Ol25Mjr4HjbO76KpwRX4-75" value="返回image的tag" style="edgeLabel;resizable=0;html=1;;align=center;verticalAlign=middle;rotation=35;" parent="Ol25Mjr4HjbO76KpwRX4-74" connectable="0" vertex="1">
          <mxGeometry relative="1" as="geometry" />
        </mxCell>
        <mxCell id="Ol25Mjr4HjbO76KpwRX4-78" value="&lt;font style=&quot;font-size: 21px;&quot;&gt;Jenkins Pipeline Job&lt;/font&gt;" style="text;html=1;align=center;verticalAlign=middle;whiteSpace=wrap;rounded=0;strokeColor=default;" parent="1" vertex="1">
          <mxGeometry x="2600" y="280" width="300" height="40" as="geometry" />
        </mxCell>
        <mxCell id="Ol25Mjr4HjbO76KpwRX4-80" value="&lt;font style=&quot;font-size: 21px;&quot;&gt;敏感资源文件&lt;/font&gt;" style="text;html=1;align=center;verticalAlign=middle;whiteSpace=wrap;rounded=0;strokeColor=default;" parent="1" vertex="1">
          <mxGeometry x="1490" y="1450" width="210" height="40" as="geometry" />
        </mxCell>
        <mxCell id="itl_u60emXafwgLW5-W6-2" value="&lt;font style=&quot;font-size: 21px;&quot;&gt;CI流程&lt;/font&gt;" style="text;html=1;align=center;verticalAlign=middle;whiteSpace=wrap;rounded=0;strokeColor=default;" vertex="1" parent="1">
          <mxGeometry x="590" y="740" width="170" height="70" as="geometry" />
        </mxCell>
        <mxCell id="itl_u60emXafwgLW5-W6-4" value="&lt;font style=&quot;font-size: 21px;&quot;&gt;CD流程&lt;/font&gt;" style="text;html=1;align=center;verticalAlign=middle;whiteSpace=wrap;rounded=0;strokeColor=default;" vertex="1" parent="1">
          <mxGeometry x="3520" y="2070" width="170" height="70" as="geometry" />
        </mxCell>
        <mxCell id="itl_u60emXafwgLW5-W6-7" value="&lt;font style=&quot;font-size: 21px;&quot;&gt;敏感信息管理流程&lt;/font&gt;" style="text;html=1;align=center;verticalAlign=middle;whiteSpace=wrap;rounded=0;strokeColor=default;" vertex="1" parent="1">
          <mxGeometry x="110" y="2050" width="220" height="70" as="geometry" />
        </mxCell>
        <mxCell id="itl_u60emXafwgLW5-W6-8" value="&lt;h1 style=&quot;margin-top: 0px;&quot;&gt;&lt;font style=&quot;font-size: 32px;&quot;&gt;标题：IDC私有云CICD流程图&lt;/font&gt;&lt;/h1&gt;&lt;div&gt;&lt;font style=&quot;font-size: 32px;&quot;&gt;作者：汪浩浩&lt;/font&gt;&lt;/div&gt;&lt;div&gt;&lt;span style=&quot;font-size: 32px;&quot;&gt;邮箱：whh881114@gamil.com&lt;/span&gt;&lt;/div&gt;&lt;div&gt;&lt;span style=&quot;font-size: 32px;&quot;&gt;创建时间：2025/05/31&lt;/span&gt;&lt;/div&gt;&lt;div&gt;&lt;span style=&quot;font-size: 32px;&quot;&gt;修改时间：2025/05/31&lt;/span&gt;&lt;/div&gt;&lt;div&gt;&lt;br&gt;&lt;/div&gt;" style="text;html=1;whiteSpace=wrap;overflow=hidden;rounded=0;strokeColor=default;" vertex="1" parent="1">
          <mxGeometry x="80" y="910" width="540" height="230" as="geometry" />
        </mxCell>
      </root>
    </mxGraphModel>
  </diagram>
</mxfile>
